<svg xmlns="http://www.w3.org/2000/svg" xmlns:xlink="http://www.w3.org/1999/xlink" viewBox="0 0 7.95 15.84"><defs><style>.cls-1{isolation:isolate;}.cls-2{opacity:0.7;fill:#000;}.cls-10,.cls-11,.cls-12,.cls-13,.cls-14,.cls-15,.cls-16,.cls-2,.cls-22,.cls-9{mix-blend-mode:multiply;}.cls-3{fill:#fff;}.cls-4{fill:url(#Áåçûìÿííûé_ãðàäèåíò_151);}.cls-5{fill:url(#Áåçûìÿííûé_ãðàäèåíò_152);}.cls-6{fill:url(#Áåçûìÿííûé_ãðàäèåíò_152-2);}.cls-7{fill:url(#Áåçûìÿííûé_ãðàäèåíò_152-3);}.cls-8{fill:url(#Áåçûìÿííûé_ãðàäèåíò_152-4);}.cls-11,.cls-15,.cls-9{fill:#f3bac0;}.cls-10,.cls-11,.cls-12,.cls-13,.cls-14,.cls-21,.cls-9{fill-rule:evenodd;}.cls-10,.cls-13,.cls-15,.cls-9{opacity:0.6;}.cls-10{fill:url(#Áåçûìÿííûé_ãðàäèåíò_55);}.cls-11,.cls-12{opacity:0.2;}.cls-12,.cls-14,.cls-16,.cls-22{fill:#d87290;}.cls-13{fill:url(#Áåçûìÿííûé_ãðàäèåíò_409);}.cls-14{opacity:0.3;}.cls-16{opacity:0.5;}.cls-17,.cls-18{mix-blend-mode:screen;}.cls-17{fill:url(#Áåçûìÿííûé_ãðàäèåíò_59);}.cls-18{fill:url(#Áåçûìÿííûé_ãðàäèåíò_59-2);}.cls-19{fill:#f5ffff;}.cls-19,.cls-20{opacity:0.97;mix-blend-mode:soft-light;}.cls-20{fill:#f5ee8f;}.cls-21{fill:#b24d61;}.cls-22{opacity:0.31;}</style><radialGradient id="radial-gradient" cx="1776.91" cy="-1319.92" r="35.75" gradientTransform="translate(-1330.05 -1769.73) rotate(90)" gradientUnits="userSpaceOnUse"><stop offset="0.01" stop-color="#e7e5f0"/><stop offset="0.17" stop-color="#e3e0ec"/><stop offset="0.37" stop-color="#d7d1e2"/><stop offset="0.59" stop-color="#c3b8d0"/><stop offset="0.82" stop-color="#a896b7"/><stop offset="1" stop-color="#8e75a0"/></radialGradient><linearGradient id="Áåçûìÿííûé_ãðàäèåíò_151" x1="4088.49" y1="-2609.28" x2="4088.49" y2="-2628.95" gradientTransform="translate(-4191.84 2454.42) rotate(2.42)" gradientUnits="userSpaceOnUse"><stop offset="0.02" stop-color="#ffb880"/><stop offset="1" stop-color="#ff8777"/></linearGradient><linearGradient id="Áåçûìÿííûé_ãðàäèåíò_152" x1="4089.05" y1="-2619.83" x2="4091.98" y2="-2622.76" gradientTransform="translate(-4191.84 2454.42) rotate(2.42)" gradientUnits="userSpaceOnUse"><stop offset="0" stop-color="#ff8777"/><stop offset="0.98" stop-color="#ffb880"/></linearGradient><linearGradient id="Áåçûìÿííûé_ãðàäèåíò_152-2" x1="4085.5" y1="-2622.42" x2="4085.5" y2="-2626.54" xlink:href="#Áåçûìÿííûé_ãðàäèåíò_152"/><linearGradient id="Áåçûìÿííûé_ãðàäèåíò_152-3" x1="4087.46" y1="-2623.03" x2="4087.46" y2="-2629.07" xlink:href="#Áåçûìÿííûé_ãðàäèåíò_152"/><linearGradient id="Áåçûìÿííûé_ãðàäèåíò_152-4" x1="4089.26" y1="-2622.87" x2="4089.26" y2="-2628.1" xlink:href="#Áåçûìÿííûé_ãðàäèåíò_152"/><linearGradient id="Áåçûìÿííûé_ãðàäèåíò_55" x1="4089.8" y1="-2626.07" x2="4089.8" y2="-2626.13" gradientTransform="translate(-4191.84 2454.42) rotate(2.42)" gradientUnits="userSpaceOnUse"><stop offset="0.01" stop-color="#b060f4"/><stop offset="1" stop-color="#ffeadb"/></linearGradient><linearGradient id="Áåçûìÿííûé_ãðàäèåíò_409" x1="-3589.85" y1="-2627.37" x2="-3589.85" y2="-2627.42" gradientTransform="matrix(-1, -0.04, -0.04, 1, -3695.83, 2475.83)" gradientUnits="userSpaceOnUse"><stop offset="0" stop-color="#ffeadb"/><stop offset="0.99" stop-color="#b060f4"/></linearGradient><linearGradient id="Áåçûìÿííûé_ãðàäèåíò_59" x1="31.37" y1="2410.5" x2="34.53" y2="2410.5" gradientTransform="translate(302.42 -2382.68) rotate(7.89)" gradientUnits="userSpaceOnUse"><stop offset="0"/><stop offset="0.04" stop-color="#0c0300"/><stop offset="0.4" stop-color="#6b1f00"/><stop offset="0.69" stop-color="#b03300"/><stop offset="0.89" stop-color="#db3f00"/><stop offset="1" stop-color="#ec4400"/></linearGradient><linearGradient id="Áåçûìÿííûé_ãðàäèåíò_59-2" x1="535.38" y1="5405.97" x2="538.33" y2="5405.97" gradientTransform="matrix(-0.99, -0.14, 0.07, -0.47, 180.93, 2628.89)" xlink:href="#Áåçûìÿííûé_ãðàäèåíò_59"/></defs><g class="cls-1"><g id="Layer_2" data-name="Layer 2"><g id="Layer_1-2" data-name="Layer 1"><path class="cls-2" d="M1,6.81S1,7.32,1,8V8a10.23,10.23,0,0,0,.21,2.35l1.06.87s.42,3.61.49,4.59H5.21l0-.1v0s0-.07,0-.11-.4-3-.4-3v-.1a.78.78,0,0,0,0-.16v-.07h0V12h0v-.14a.45.45,0,0,1,0-.11v-.22a.07.07,0,0,0,0,0,.15.15,0,0,0,0-.07h0l.13,0h0l.19-.06.05,0h.08l0,0h.21l.11-.05h0l0,0,0,0h0l0,0h0l0,0h0l.06,0h0l.15-.07h0l.18-.09h0l.06,0h0l.26-.17.06,0,0,0a.57.57,0,0,0,.11-.11l0,0,0,0h0v0l0,0h0v0A2,2,0,0,0,7,10H7c0-.14,0-.29.07-.46h0V9.42h0V9.33h0c.06-.58.06-1.24.08-1.65h0V7.61h0v0h0V7.48a4.83,4.83,0,0,1,.37-1.13h0a9.05,9.05,0,0,0,.4-1c0-.1-.46-.23-.9-.14s-.91,1-.94,1.18A5,5,0,0,0,6.4,7.4L6.26,8,5.78,8h0V7.5h0V6.56h0c0-.95,0-2.21,0-3.26V3.23A17,17,0,0,0,5.68,1.4c0-.13-.41-.32-.82,0s-.33,2.51-.17,2.8h0a.66.66,0,0,0,0,.09l0,.4L4.6,6.33H4.43s-.08-1.47-.19-3h0c-.07-1.1.12-2.22,0-2.9C4.22.2,3.87,0,3.49.28l-.1.07,0,0h0c-.23.2-.19.39-.21.58h0C3,.9,2.55.9,2.48,1.18a5.12,5.12,0,0,0-.19,1.09h0v0h0a5,5,0,0,0,0,.55h0v.07s0,0,0-.08a3.24,3.24,0,0,0,.12.81v.09L2.26,6.23h0l-.44,0s0-.88,0-1.79h0V3.71h0V2.82c0-.31-.85-.21-.95.21A7.37,7.37,0,0,0,.81,4.12,2.37,2.37,0,0,0,1,5Z"/><path class="cls-3" d="M.17,6.75s0,.52,0,1.15h0V8a9.26,9.26,0,0,0,.21,2.39l.07.09,1,.8c.07.56.42,3.62.48,4.48v.12h.44v-.15c-.07-.95-.48-4.44-.49-4.59L1.76,11l-1-.82A10.78,10.78,0,0,1,.59,8V7.89c0-.62,0-1.12,0-1.13V4.92l0-.08a2,2,0,0,1-.15-.72,7.27,7.27,0,0,1,.06-1v0c0-.06.08-.12.18-.16a.67.67,0,0,1,.32,0v.83H1v.71c0,.9,0,1.76,0,1.76l.21.22.43,0,.23-.21v0h0L2,3.66V3.59a3.35,3.35,0,0,1-.11-.67h0v0h0c0-.17,0-.34,0-.53v0h0a5.07,5.07,0,0,1,.18-1h0s0,0,.05-.06a.45.45,0,0,1,.28,0l.29-.14h0l0,0s0-.08,0-.12A.42.42,0,0,1,2.86.6h0L3,.52A.37.37,0,0,1,3.33.46s.06,0,.06,0a6.35,6.35,0,0,1,0,1.24c0,.49-.05,1,0,1.59h0c.11,1.5.18,2.94.18,2.95l.21.21h.18l.23-.21h0l.11-2v0a.35.35,0,0,0,0-.1l-.07,0L4.23,4A4.19,4.19,0,0,1,4.1,2.77c0-.83.15-1.15.23-1.2a.47.47,0,0,1,.47-.06c0,.29.06.87.08,1.73v.07c0,1,0,2.24,0,3.19h0v.43c0,.19,0,.35,0,.49h0V8H5.1v.22h0l.47-.05L5.79,8l.14-.57V7.27a5.72,5.72,0,0,1-.27-.94c0-.19.46-.92.75-1a1.35,1.35,0,0,1,.58,0c0,.12-.13.37-.33.86h0A4.74,4.74,0,0,0,6.26,7.4v.06h0V7.6c0,.13,0,.28,0,.45,0,.37,0,.78-.06,1.17V9.3h0v.08h0a3.32,3.32,0,0,1-.07.42h0a2.12,2.12,0,0,1-.09.27H6v0H6v0h0v0a.38.38,0,0,1-.09.09l0,0-.06,0a1.53,1.53,0,0,1-.23.15h0l0,0h0l-.17.08h0l-.14.06h0l-.06,0-.07,0,.08.21L5,10.73l-.08,0h0l-.06,0-.11,0-.07,0h0l-.27.1L4.18,11h0l-.13,0H4l-.16.17s0,0,0,.06v.08s0,0,0,.07h0v0a.34.34,0,0,0,0,.1V12l0,.24a.88.88,0,0,0,0,.16v.1a.22.22,0,0,1,0,.08.52.52,0,0,1,0,.11l0,.13s.1.69.18,1.31c.15,1.08.22,1.58.24,1.71H4.8v0c0-.05-.13-1-.23-1.74-.13-.9-.18-1.3-.18-1.32l0-.13s0-.07,0-.11v-.08l0-.09c0-.05,0-.1,0-.15l0-.22v-.18h0v0a.34.34,0,0,1,0-.1v-.17h0l.19-.06.09,0-.07-.21.08.21.28-.1L5,11.2l.27-.11.06,0h0L5.49,11h0l.18-.1h0l.06,0h0A2.27,2.27,0,0,0,6,10.67l.07-.05,0,0a.49.49,0,0,0,.12-.13l0,0,0,0h0l0,0,0,0h0s0,0,0,0a2.08,2.08,0,0,0,.11-.35h0a2.69,2.69,0,0,0,.08-.47h0V9.35h0V9.26c0-.4.06-.84.07-1.2,0-.16,0-.31,0-.44V7.5h0l-.22,0h.22v0a5.17,5.17,0,0,1,.35-1.05h0c.42-1,.41-1.08.4-1.15A.29.29,0,0,0,7.32,5a1.54,1.54,0,0,0-1-.12c-.4.09-.78.65-1,1,0-.85,0-1.82,0-2.65V3.23c0-.92-.05-1.51-.09-1.81A.36.36,0,0,0,5,1.13a.91.91,0,0,0-.94.08.63.63,0,0,0-.24.32,5.36,5.36,0,0,0,0-1.08A.49.49,0,0,0,3.51.06.71.71,0,0,0,3.23,0a.93.93,0,0,0-.49.15L2.63.23,2.57.28h0a.75.75,0,0,0-.25.47.81.81,0,0,0-.38.08.49.49,0,0,0-.28.33,5,5,0,0,0-.2,1.11v0h0c0,.15,0,.29,0,.42A.44.44,0,0,0,1,2.44.89.89,0,0,0,.08,3,7.72,7.72,0,0,0,0,4.11,2.36,2.36,0,0,0,.17,5Zm5.16.68V6.9c0,.16.11.32.16.45L5.4,7.7H5.33V7.44Zm-3.89-3V3.71h0V3.17a3.69,3.69,0,0,0,.1.5l-.1,2.15Z"/><path class="cls-3" d="M4.79,1.45v0Z"/><path class="cls-3" d="M1.45,2.27Z"/><path class="cls-3" d="M1.45,2.28h0Z"/><path class="cls-3" d="M1,2.83Z"/><path class="cls-3" d="M7,5.3Z"/><path class="cls-3" d="M5.11,7.43Z"/><path class="cls-4" d="M.38,6.76s0,.5,0,1.13V8a9.52,9.52,0,0,0,.2,2.31l1,.86s.42,3.62.49,4.57v.14H4.58c0-.13-.41-3-.42-3.06h0l0-.12s0-.08,0-.11,0-.06,0-.08v0c0-.06,0-.12,0-.18v-.1s0-.07,0-.1V12s0-.06,0-.09v-.13a0,0,0,0,1,0,0,2.28,2.28,0,0,1,0-.45h0l.34-.11.07,0h.06l.08,0,.06,0h0l.06,0L4.94,11H5l0,0h0l0,0,.08,0,0,0h0l.15-.08h0l0,0,0,0,.08,0h0l.06,0,.07-.05.07,0,.12-.08L6,10.45l0,0,.11-.11,0,0,0,0h0l0,0,0,0h0v0a11.44,11.44,0,0,0,.29-2.75A4.78,4.78,0,0,1,6.85,6.3h0a6.62,6.62,0,0,0,.38-1c0-.1-.44-.22-.87-.13s-.9,1-.93,1.16a5,5,0,0,0,.28,1l-.13.56L5.11,8V7.43c0-.24,0-.56,0-.92h0c0-.94,0-2.17,0-3.21V3.24c0-.8,0-1.48-.09-1.81,0-.12-.66-.23-.77,0S4,2.62,3.92,3A4.55,4.55,0,0,0,4,4.15a.66.66,0,0,0,0,.09L4,6.3H3.77s-.07-1.44-.18-3h0c-.07-1.08,0-2.13-.13-2.8,0-.23-.57-.26-.74-.09A2.45,2.45,0,0,0,2.5,1c-.13-.07-.57-.08-.64.21a4.9,4.9,0,0,0-.19,1.07s0,0,0,0v0h0c0,.17,0,.36,0,.54h0a3.6,3.6,0,0,0,.12.79L1.65,6.2h0l-.43,0s0-1.39,0-2.47h0c0-.34,0-.65,0-.88s-.85,0-.94.2A6.4,6.4,0,0,0,.22,4.11a2.13,2.13,0,0,0,.17.81Z"/><path class="cls-5" d="M6.85,6.3h0a4.78,4.78,0,0,0-.37,1.12,19.67,19.67,0,0,1-.19,2.44A6.08,6.08,0,0,0,5.11,8l.47,0,.13-.56a5,5,0,0,1-.28-1c0-.19.5-1.07.93-1.16s.86,0,.87.13A6.62,6.62,0,0,1,6.85,6.3Z"/><path class="cls-6" d="M1.22,6.18l-.84.58V4.92a2.13,2.13,0,0,1-.17-.81A9.69,9.69,0,0,1,.29,3c.1-.41.94-.5.94-.2s0,.54,0,.88h0C1.22,4.79,1.22,6.18,1.22,6.18Z"/><path class="cls-7" d="M1.65,2.86c0-.18,0-.37,0-.54h0v0s0,0,0,0a4.9,4.9,0,0,1,.19-1.07C1.93.93,2.37.94,2.5,1A.69.69,0,0,1,2.86.34c.37-.24.71-.08.75.14.1.67-.09,1.77,0,2.85h0c.11,1.52.18,3,.18,3L1.65,6.2l.12-2.54a3.6,3.6,0,0,1-.12-.79Z"/><path class="cls-8" d="M4,4.15c-.16-.24-.32-2.43.16-2.76s.81-.08.81,0c0,.33.07,1,.09,1.81V3.3h0c0,1,0,2.26,0,3.2h0L4,6.3l.11-2.06A.13.13,0,0,0,4,4.15Z"/><path class="cls-9" d="M2.86,9.21A5.62,5.62,0,0,1,5.11,8V7.43s-2.75-.57-3.65,0a3.53,3.53,0,0,0,.28,1.27C2,9,2.86,9.21,2.86,9.21Z"/><path class="cls-10" d="M5.1,3.27v0Z"/><path class="cls-11" d="M5.11,6.5h0l-1-.18h0l-.17,0L4,4.62l0-.39a.66.66,0,0,1,0-.09,2.83,2.83,0,0,0,.79.12c.23,0,.26-.73.26-1Z"/><path class="cls-12" d="M3.76,6.28,1.64,6.19l.11-2.45V3.65a3.6,3.6,0,0,1-.12-.79,1.15,1.15,0,0,0,.23.54l.59-.13A14.73,14.73,0,0,1,2.49,1a14.35,14.35,0,0,0,.13,2.28s.6.54,1,0l.06.91C3.71,5.36,3.76,6.28,3.76,6.28Z"/><path class="cls-13" d="M1.67,2.29a0,0,0,0,0,0,0,.13.13,0,0,0,0,0Z"/><path class="cls-11" d="M1.22,6.18,1,6.3H1l-.66.46V4.92l.46,0,.37-1.23h0c0,.23,0,.47,0,.71h0Z"/><path class="cls-14" d="M5.11,8a4,4,0,0,0-2,1,3.5,3.5,0,0,1,2-1.57Z"/><path class="cls-15" d="M4.6,15.84C4.37,14.41,4,12.06,4,11.73a2,2,0,0,1,0-.42v0A7,7,0,0,0,5.9,10.5,7.38,7.38,0,0,1,4,11.08a.11.11,0,0,0-.08,0,.33.33,0,0,0-.1.26,41,41,0,0,0,.75,4.49Z"/><path class="cls-16" d="M5.9,10.5a7,7,0,0,1-1.82.78,1.54,1.54,0,0,1-.17-.19h0a.11.11,0,0,1,.08,0A7.38,7.38,0,0,0,5.9,10.5Z"/><path class="cls-17" d="M2.41,10.09c-.08.24,1.85.31,2.72-.09.61-.28.56-.51.55-.63s-.37-.82-.94-.82A3.54,3.54,0,0,0,2.41,10.09Z"/><path class="cls-18" d="M3.72,6.5a6.55,6.55,0,0,0-2.27-.1c-.4,0-1.07.77-.67.77C1.35,7.17,3.55,6.82,3.72,6.5Z"/><path class="cls-19" d="M4.64,10.77s.74-.21.87-.28.52-.22.57-.4.23-1.48.23-1.48a11.32,11.32,0,0,1-.38,1.5C5.8,10.35,4.64,10.77,4.64,10.77Z"/><path class="cls-19" d="M2.43,15.84c-.25-1.67-.58-4.42-.58-4.42s.24,2.71.42,4.42Z"/><path class="cls-19" d="M.67,8.37a7.44,7.44,0,0,0,0,1.52c.1.38.65.72.65.72a1.82,1.82,0,0,1-.51-.85A9,9,0,0,1,.67,8.37Z"/><path class="cls-20" d="M4.94,1.48a3,3,0,0,0-.85.32.75.75,0,0,1,.32-.38A.78.78,0,0,1,4.94,1.48Z"/><path class="cls-19" d="M4.07,2A7.58,7.58,0,0,0,4.26,4,4,4,0,0,1,4,2.79,1.55,1.55,0,0,1,4.07,2Z"/><path class="cls-20" d="M1.1,2.83a2.27,2.27,0,0,0-.67.25.64.64,0,0,1,.26-.3C.92,2.68,1.15,2.8,1.1,2.83Z"/><path class="cls-19" d="M.42,3.2A6.19,6.19,0,0,0,.56,4.81a3,3,0,0,1-.23-.95A1.28,1.28,0,0,1,.42,3.2Z"/><path class="cls-20" d="M3.49.46a4.09,4.09,0,0,0-.86.33A.64.64,0,0,1,3,.44,1,1,0,0,1,3.49.46Z"/><path class="cls-20" d="M2.44,1H2.28a.53.53,0,0,0-.34.2,3.16,3.16,0,0,1,.47-.06Z"/><path class="cls-19" d="M2,1.33a9.22,9.22,0,0,0-.12,1.92A4.58,4.58,0,0,1,1.78,2C1.84,1.43,2,1.33,2,1.33Z"/><path class="cls-20" d="M7.05,5.32a3.47,3.47,0,0,0-.74-.05,1.2,1.2,0,0,1,.45-.11A.4.4,0,0,1,7.05,5.32Z"/><path class="cls-19" d="M7,5.43a5.05,5.05,0,0,1-.93,1.34,2.72,2.72,0,0,0,.72-.72A1,1,0,0,0,7,5.43Z"/><path class="cls-19" d="M4.42,15.84c-.26-1.75-.62-4.55-.62-4.55a27.15,27.15,0,0,0,.59,4.55Z"/><path class="cls-21" d="M2.63,4.1l.14,2.15H2.61A10.67,10.67,0,0,0,2.63,4.1Z"/><path class="cls-14" d="M2.63,4.1l.14,2.15-.58,0c0-.13.3-.28.3-.28l0-2.78Z"/><path class="cls-14" d="M4.48,6.39l-.36-.06L4,6.3l.11-2.06C4.12,5.17,4.17,6.16,4.48,6.39Z"/><path class="cls-14" d="M1.22,4.42V6.18L1,6.3A16.24,16.24,0,0,0,1.22,4.42Z"/><path class="cls-14" d="M1.94,6.21H1.65l.12-2.45A17.07,17.07,0,0,0,1.94,6.21Z"/><path class="cls-22" d="M1.62,11.13s.42,3.62.49,4.57v.14H4.58c0-.13-.41-3-.42-3.06h0l0-.12s0-.08,0-.11v-.12c0-.06,0-.12,0-.18v-.1s0-.07,0-.1V12s0-.06,0-.09v-.13a0,0,0,0,1,0,0,2.28,2.28,0,0,1,0-.45h0l.34-.11.07,0h.06l.08,0,.06,0h0l.06,0L4.94,11H5l0,0h0l0,0,.08,0,0,0h0l.15-.08h0l0,0,0,0,.08,0h0l.06,0,.07-.05.07,0,.12-.08L6,10.45l0,0,.11-.11,0,0,0,0h0l0,0,0,0h0v0a11.44,11.44,0,0,0,.29-2.75A4.78,4.78,0,0,1,6.85,6.3a4.33,4.33,0,0,1-.73.6,1.22,1.22,0,0,1-.69-.6,5,5,0,0,0,.28,1l-.13.56L5.11,8a2.36,2.36,0,0,1,.64,1.93,7.24,7.24,0,0,1-2.94.52A4.49,4.49,0,0,1,.62,9.72,13.57,13.57,0,0,1,.38,8a9.52,9.52,0,0,0,.2,2.31Z"/><path class="cls-14" d="M3.76,6.28l-.84,0a2.52,2.52,0,0,1,.45-.14l.18-.64.09-1.23C3.71,5.36,3.76,6.28,3.76,6.28Z"/></g></g></g></svg>