<svg xmlns="http://www.w3.org/2000/svg" xmlns:xlink="http://www.w3.org/1999/xlink" viewBox="0 0 8.77 15.98"><defs><style>.cls-1{isolation:isolate;}.cls-2{opacity:0.7;fill:#000;}.cls-12,.cls-16,.cls-2,.cls-5,.cls-6{mix-blend-mode:multiply;}.cls-3{fill:#fff;}.cls-4{fill:url(#Áåçûìÿííûé_ãðàäèåíò_152);}.cls-16,.cls-5,.cls-6{fill:#d87290;}.cls-5{opacity:0.5;}.cls-6{opacity:0.31;}.cls-7{fill:url(#Áåçûìÿííûé_ãðàäèåíò_151);}.cls-8{fill:#f5af8f;}.cls-10,.cls-15,.cls-17,.cls-18,.cls-8{opacity:0.97;mix-blend-mode:soft-light;}.cls-9{fill:#e86c7c;}.cls-10{fill:#f5d3d2;}.cls-11{fill:#ab3d52;}.cls-12{fill:#f3bac0;opacity:0.6;}.cls-13{mix-blend-mode:screen;fill:url(#Áåçûìÿííûé_ãðàäèåíò_59);}.cls-14{fill:#b24d61;}.cls-15{fill:#f5ee8f;}.cls-16{opacity:0.3;}.cls-17{fill:#f5a995;}.cls-18{fill:#f5ffff;}</style><radialGradient id="radial-gradient" cx="4294.61" cy="-741.99" r="39.78" gradientTransform="translate(4300.03 -740.83) rotate(180)" gradientUnits="userSpaceOnUse"><stop offset="0.01" stop-color="#e7e5f0"/><stop offset="0.17" stop-color="#e3e0ec"/><stop offset="0.37" stop-color="#d7d1e2"/><stop offset="0.59" stop-color="#c3b8d0"/><stop offset="0.82" stop-color="#a896b7"/><stop offset="1" stop-color="#8e75a0"/></radialGradient><linearGradient id="Áåçûìÿííûé_ãðàäèåíò_152" x1="343.23" y1="937.73" x2="343.23" y2="927.32" gradientTransform="matrix(-1, 0.08, 0.08, 1, 274.76, -950.63)" gradientUnits="userSpaceOnUse"><stop offset="0" stop-color="#ff8777"/><stop offset="0.98" stop-color="#ffb880"/></linearGradient><linearGradient id="Áåçûìÿííûé_ãðàäèåíò_151" x1="343.32" y1="943.56" x2="343.32" y2="933.45" gradientTransform="matrix(-1, 0.08, 0.08, 1, 274.76, -950.63)" gradientUnits="userSpaceOnUse"><stop offset="0.02" stop-color="#ffb880"/><stop offset="1" stop-color="#ff8777"/></linearGradient><linearGradient id="Áåçûìÿííûé_ãðàäèåíò_59" x1="341.98" y1="936.99" x2="346.15" y2="936.99" gradientTransform="matrix(-1, 0.08, 0.08, 1, 274.76, -950.63)" gradientUnits="userSpaceOnUse"><stop offset="0"/><stop offset="0.04" stop-color="#0c0300"/><stop offset="0.4" stop-color="#6b1f00"/><stop offset="0.69" stop-color="#b03300"/><stop offset="0.89" stop-color="#db3f00"/><stop offset="1" stop-color="#ec4400"/></linearGradient></defs><g class="cls-1"><g id="Layer_2" data-name="Layer 2"><g id="Layer_1-2" data-name="Layer 1"><path class="cls-2" d="M1.37,10.48a2.16,2.16,0,0,0,.78,1.12c.41.34,1.75.7,2,1.36A14.65,14.65,0,0,1,4,16H7.38a17.77,17.77,0,0,1-.46-3.19c.17-.23.71-.16,1-.76a9.58,9.58,0,0,0,.47-2.47c.06-.74.41-1.53.4-1.8a1.38,1.38,0,0,0-1.3-.84c-.14,0-.18-.61-.44-.85a1.49,1.49,0,0,0-1.16-.23c-.22.08-.34.22-.37.18s.15-1.64.16-1.83A16.69,16.69,0,0,0,5.52.75C5.29.22,4.4.41,4.06.72s-.14,3-.09,3.6a12.41,12.41,0,0,1-.11,2.54.28.28,0,0,1-.42-.05c0-.12-.55-1.95-.69-2.24a20.74,20.74,0,0,0-.93-3.09c-.3-.25-1-.1-1.28.84s1.19,4,1.4,5S1.36,10.21,1.37,10.48Z"/><path class="cls-3" d="M.75,4.42a2.16,2.16,0,0,1,.13.28,18.83,18.83,0,0,1,.64,2.38v.07c0,.31-.08.85-.14,1.13s-.13.4-.21.65L1,9.43A1,1,0,0,0,.91,10a2.09,2.09,0,0,0,.61.92h0a7.11,7.11,0,0,0,.62.39,7.57,7.57,0,0,1,1.51,1.05,1.71,1.71,0,0,1,.07.57v0q0,.38,0,.93h0c0,.38,0,.81,0,1.28v0c0,.31,0,.59,0,.78H6.92c-.14-1.27-.35-3.24-.38-3.69l.17-.11a2,2,0,0,0,.63-.52c0-.08.08-.18.13-.3v0a3.69,3.69,0,0,0,.19-.87c0-.2.09-.6.14-.89v0c.05-.24.08-.43.09-.47a14.52,14.52,0,0,0,.35-1.72,1.12,1.12,0,0,0-.76-1A1.15,1.15,0,0,0,7,6.28a2.42,2.42,0,0,0-.25-.56,1.36,1.36,0,0,0-.62-.38,1.29,1.29,0,0,0-.74-.07.94.94,0,0,0-.26.14l.06-1v0h0l0-.16a2.06,2.06,0,0,0,0-.51c0-.05,0-.28,0-.44s0-.21,0-.31V2.83h0c0-.13,0-.31,0-.5a9.89,9.89,0,0,0,0-1.07A2.72,2.72,0,0,0,5.18.56C5.05.17,4.94.11,4.89.09A1.37,1.37,0,0,0,3.68.2c-.07.06-.23.21-.28,1.32a13.82,13.82,0,0,0,.07,1.94c0,.06,0,.12,0,.18s0,.31,0,.63v0h0v.12h0c0,.76-.07,1.37-.1,1.8H3.05c-.21-.7-.46-1.6-.48-1.8a3.59,3.59,0,0,0-.2-.69v0L2.3,3.59a1.67,1.67,0,0,1-.11-.31c0-.08-.08-.29-.14-.52s-.22-.83-.33-1.18V1.51l0,0A1.18,1.18,0,0,0,1.45,1,.84.84,0,0,0,.61.89,1.13,1.13,0,0,0,0,2,4.33,4.33,0,0,0,.62,4.16Z"/><path class="cls-4" d="M1,4.32c.05.1.09.2.13.3A33.57,33.57,0,0,1,2,7.93l.12.55a9,9,0,0,0,1.25,2.21c.28.18,1.86-.35,3-.87C7.07,9.5,7.64,9.18,7.68,9A16.48,16.48,0,0,0,8,7.34a1,1,0,0,0-1.17-.82h0a3.45,3.45,0,0,0-.27-.67,1.41,1.41,0,0,0-.51-.3,1.07,1.07,0,0,0-.6-.06c-.29.08-.52.51-.6.7l0,.1c0-.06.09-1.24.12-1.62l0-.29H5A5.92,5.92,0,0,0,5,3.74a7.32,7.32,0,0,1,0-.79V2.81c0-.35.06-1.12,0-1.55a1.8,1.8,0,0,0-.3-1c-.08,0-.71-.14-.94.07A7.25,7.25,0,0,0,3.7,3.43a1.23,1.23,0,0,0,0,.2s0,.27,0,.65v.2c0,1-.11,2.42-.16,2.52s-.28.25-.39.14a17.58,17.58,0,0,1-.79-2.63,3.37,3.37,0,0,0-.19-.66h0C2.08,3.66,2,3.49,2,3.35S1.69,2.21,1.5,1.63h0a1.47,1.47,0,0,0-.19-.44C1.1,1,.27.91.23,2A4.64,4.64,0,0,0,1,4.32Z"/><path class="cls-5" d="M2.53,6.52,2.6,8.79l3,1.09.79-.06C7.07,9.5,7.64,9.18,7.68,9A16.48,16.48,0,0,0,8,7.34l-.39.19,0-.42-.22.32s-.13.26-.19.28-.94,0-1-.42a4.42,4.42,0,0,1,.62-.77h0a3.45,3.45,0,0,0-.27-.67s-.29.61-.39.91-1.3.2-1.48-.09l.16-.48L5,4.37H5A13.74,13.74,0,0,1,4.6,6.07c-.11.16-.77.13-.88-.09a8.58,8.58,0,0,1,0-1.5c0,1-.11,2.42-.16,2.52s-.28.25-.39.14a17.58,17.58,0,0,1-.79-2.63,3.37,3.37,0,0,0-.19-.66Z"/><path class="cls-6" d="M1,4.32c.05.1.09.2.13.3A33.57,33.57,0,0,1,2,7.93l2.14,0S5,6,4.87,6.19l0,.1c0-.06.09-1.24.12-1.62l0-.29H5A5.92,5.92,0,0,0,5,3.74a7.32,7.32,0,0,1,0-.79v0s-.11.71-.32.84a.7.7,0,0,1-1-.33h0a1.23,1.23,0,0,0,0,.2s0,.27,0,.65v.2c0,1-.11,2.42-.16,2.52s-.28.25-.39.14a17.58,17.58,0,0,1-.79-2.63,3.37,3.37,0,0,0-.19-.66h0C2.08,3.66,2,3.49,2,3.35S1.69,2.21,1.5,1.63a17.06,17.06,0,0,1,.37,2.58C1.8,4.41,1.28,4.54,1,4.32Z"/><path class="cls-7" d="M1.67,10.71h0a14,14,0,0,1,2.18,1.51,13,13,0,0,1,.06,3h0c0,.32,0,.6,0,.79H6.69c-.06-.51-.41-3.72-.38-3.79s.71-.44.83-.64.07-.16.11-.27h0a3.49,3.49,0,0,0,.19-.85c0-.22.09-.62.15-.94h0L7.68,9a9.47,9.47,0,0,1-2.36.55,6.48,6.48,0,0,0-1.25-.72l-.31-.15h0C3.35,8.5,3,8.37,3,8.35s0-.54,0-.54a6.27,6.27,0,0,0,1,0c.32,0,1.25-.63,1.26-.87a1,1,0,0,0-.14-.57h0A.16.16,0,0,0,5,6.32c-.14,0-.71.15-1.43.17s-1.17,0-1.33,0a.91.91,0,0,0-.48.33c0,.06-.1,1-.19,1.46-.06.28-.27.79-.38,1.17a1,1,0,0,0-.08.41A1.86,1.86,0,0,0,1.67,10.71Z"/><polygon class="cls-6" points="5.1 6.38 5.1 6.38 5.1 6.38 5.1 6.38"/><path class="cls-6" d="M5.32,9.56a6.48,6.48,0,0,0-1.25-.72A5.15,5.15,0,0,1,5.4,9.94a3.83,3.83,0,0,1,1.85,1.34,3.49,3.49,0,0,0,.19-.85c0-.22.09-.62.15-.94h0L7.68,9A9.47,9.47,0,0,1,5.32,9.56Z"/><path class="cls-6" d="M4.07,8.84l-.31-.15Z"/><path class="cls-6" d="M1.21,9.5A7.19,7.19,0,0,0,3,8.53a2,2,0,0,1,.77.16C3.35,8.5,3,8.37,3,8.35s0-.54,0-.54a6.27,6.27,0,0,0,1,0c.32,0,1.25-.63,1.26-.87a1,1,0,0,0-.14-.57A.53.53,0,0,1,5,7.06a4.48,4.48,0,0,1-2.29.49,5.92,5.92,0,0,1-1-.68c0,.06-.1,1-.19,1.46C1.53,8.61,1.32,9.12,1.21,9.5Z"/><polygon class="cls-5" points="3 7.81 2.44 7.7 3 7.98 3 7.81"/><path class="cls-5" d="M3,7.81l0,.54A3.43,3.43,0,0,1,5.32,9.56a10.82,10.82,0,0,0,1.62-.28l.34-.48.35-1.27,0-.42-.26.53s-.14.53-.21.69a1.09,1.09,0,0,1-.57.44,1.07,1.07,0,0,1-.58-.26,8.16,8.16,0,0,1,.17-1.22,6.16,6.16,0,0,1,.62-.77A5,5,0,0,0,6.19,7c-.09.12-.32,1.19-.51,1.31a1,1,0,0,1-.75,0c-.12-.08-.27-.74-.27-.74A3.62,3.62,0,0,1,4,7.84,9.26,9.26,0,0,1,3,7.81Z"/><path class="cls-8" d="M4.93,6.32c.09,0,.18.36,0,.46A2.37,2.37,0,0,1,3.6,6.72C3.36,6.54,3.94,6.42,4.93,6.32Z"/><path class="cls-9" d="M4.93,6.79a1.87,1.87,0,0,1-.73.1,1.15,1.15,0,0,1-.82-.27c0-.08.49-.15.49-.15s-.33.08-.31.19A1.9,1.9,0,0,0,4.93,6.79Z"/><path class="cls-10" d="M4.82,6.33a1.16,1.16,0,0,1,0,.48.28.28,0,0,0,.12,0,.34.34,0,0,0-.05-.44Z"/><path class="cls-10" d="M3.87,6.47s.09.06.07.12-.3.13-.3.13-.09,0-.07-.09S3.87,6.47,3.87,6.47Z"/><path class="cls-8" d="M6.11,8.47s0,.22.49.27c0,0,0,0,.05-.05a.85.85,0,0,0,0-.53v0h0a.28.28,0,0,0-.41,0,.49.49,0,0,0-.16.33h0Z"/><path class="cls-8" d="M4.9,8.18l0,.05a.53.53,0,0,0,.61.06l0,0a.23.23,0,0,0,.06-.13h0a1.08,1.08,0,0,0-.13-.65.32.32,0,0,0-.59,0h0a.3.3,0,0,0,0,.08v0A1.36,1.36,0,0,0,4.9,8.18Z"/><path class="cls-5" d="M4.9,7.5l0,0c.08-.13.36-.29.54-.08a1.18,1.18,0,0,1,.2.67,1,1,0,0,0-.24-.78A.36.36,0,0,0,4.9,7.5Z"/><path class="cls-5" d="M4.85,7.6l0,0,0,0Z"/><path class="cls-5" d="M6.11,8.39c0-.07.11-.39.39-.32s.16.6.15.62a.85.85,0,0,0,0-.57C6.6,7.92,6.16,7.94,6.11,8.39Z"/><path class="cls-10" d="M6.11,8.47s0,.22.49.27c0,0,0,0,.05-.05A.87.87,0,0,1,6.11,8.47Z"/><path class="cls-10" d="M4.9,8.18l0,.05a.53.53,0,0,0,.61.06l0,0A1.14,1.14,0,0,1,4.9,8.18Z"/><path class="cls-11" d="M4.66,7.53A4.08,4.08,0,0,1,4,7.94c-.18,0-.91-.08-1,.41l0-.54a6.64,6.64,0,0,0,1,0A2.09,2.09,0,0,0,4.66,7.53Z"/><path class="cls-11" d="M4.92,8.26s0,.08.54.22a12.1,12.1,0,0,0,1.21.35c.14,0,.51-.44.51-.44s-.42.4-.54.38a1.61,1.61,0,0,1-.58-.26,3.28,3.28,0,0,1,.11-.89,2.15,2.15,0,0,1-.42.61A.78.78,0,0,1,4.92,8.26Z"/><path class="cls-11" d="M5.25,7s-.06.28-.56.69l-.28,0A2.39,2.39,0,0,0,5.25,7Z"/><path class="cls-12" d="M3.91,15.19c0-.14.74-3.18.23-3.54a12.91,12.91,0,0,0-2.47-.94,14,14,0,0,1,2.18,1.51A13,13,0,0,1,3.91,15.19Z"/><path class="cls-12" d="M3.85,12.22a13,13,0,0,1,.06,3h0c0,.32,0,.6,0,.79H6.69c-.06-.51-.41-3.72-.38-3.79s.71-.44.83-.64a5.34,5.34,0,0,1-1.62.12,24.61,24.61,0,0,1-3.85-1A14,14,0,0,1,3.85,12.22Z"/><path class="cls-5" d="M1.67,10.71a14,14,0,0,1,2.18,1.51l.29-.57A12.91,12.91,0,0,0,1.67,10.71Z"/><path class="cls-13" d="M5.85,10.93c.08.34-2.39.29-3.48-.37-.76-.46-.81-.84-.79-1a2.29,2.29,0,0,1,1.69-.81A3.8,3.8,0,0,1,5.85,10.93Z"/><path class="cls-14" d="M5.6,10.31A3.92,3.92,0,0,0,3,8.35,3.07,3.07,0,0,1,5.6,10.31Z"/><path class="cls-15" d="M6.43,5.79a2.89,2.89,0,0,1-1-.22A1.1,1.1,0,0,1,6.43,5.79Z"/><path class="cls-15" d="M7.66,6.85a1.16,1.16,0,0,1-.81-.33A.76.76,0,0,1,7.66,6.85Z"/><path class="cls-15" d="M4.75.35a1.79,1.79,0,0,1-.91,0A1.2,1.2,0,0,1,4.75.35Z"/><path class="cls-15" d="M1.3,1.17a3.85,3.85,0,0,0-1,.57.79.79,0,0,1,.3-.52A1,1,0,0,1,1.3,1.17Z"/><path class="cls-16" d="M7.21,7.72a1.37,1.37,0,0,1-.63,0,.41.41,0,0,1-.34-.42S6.44,7.74,7.21,7.72Z"/><path class="cls-16" d="M6,6.88a2.78,2.78,0,0,1-.81.18.51.51,0,0,0,0-.15A2.87,2.87,0,0,0,6,6.88Z"/><path class="cls-17" d="M7.26,7.86l-.32.67s.22-.18.23-.23S7.26,7.86,7.26,7.86Z"/><path class="cls-18" d="M2.56,10.8a3,3,0,0,1-.78-.2c-.13-.11-.58-.5-.6-.72a8.37,8.37,0,0,1,.38-1.34,4.18,4.18,0,0,0-.18,1.33A2,2,0,0,0,2.56,10.8Z"/><path class="cls-18" d="M6.29,15.75A1.06,1.06,0,0,1,6.1,16h.28l.16-.11a30.77,30.77,0,0,0-.34-3.5A22.75,22.75,0,0,1,6.29,15.75Z"/><path class="cls-18" d="M7.46,9.4a10,10,0,0,1-.25,1.82,1.94,1.94,0,0,1-.82.77,2.11,2.11,0,0,0,.69-1A11.33,11.33,0,0,0,7.46,9.4Z"/><path class="cls-18" d="M4.81.47A2.2,2.2,0,0,1,5,1.36C5,2,5,3.78,5,3.78S4.83.65,4.81.47Z"/><path class="cls-18" d="M.35,1.94a9,9,0,0,0,.77,2.4A4.6,4.6,0,0,1,.43,3,1.78,1.78,0,0,1,.35,1.94Z"/><path class="cls-18" d="M4,16H4a11.91,11.91,0,0,0,.06-3.45S4.06,15,4,16Z"/><path class="cls-18" d="M3.35,6.51a3.68,3.68,0,0,1-.76.12.56.56,0,0,1-.33-.09Z"/><path class="cls-8" d="M1.78,6.87a.82.82,0,0,0,.41,0c.17-.08.07-.29.07-.29A1.42,1.42,0,0,0,1.78,6.87Z"/><path class="cls-5" d="M5.25,7l-.07-.13A.93.93,0,0,0,5,6.32S5.25,6.39,5.25,7Z"/></g></g></g></svg>