<svg xmlns="http://www.w3.org/2000/svg" xmlns:xlink="http://www.w3.org/1999/xlink" viewBox="0 0 4.29 6.52"><defs><style>.cls-1{isolation:isolate;}.cls-2{opacity:0.7;fill:#000;}.cls-10,.cls-2,.cls-6,.cls-8,.cls-9{mix-blend-mode:multiply;}.cls-3{fill:#fff;}.cls-4{fill:url(#Áåçûìÿííûé_ãðàäèåíò_152);}.cls-5{fill:url(#Áåçûìÿííûé_ãðàäèåíò_151);}.cls-6,.cls-8,.cls-9{fill:#d87290;}.cls-6{opacity:0.31;}.cls-7{fill:#f5af8f;}.cls-12,.cls-13,.cls-16,.cls-17,.cls-7{opacity:0.97;mix-blend-mode:soft-light;}.cls-8{opacity:0.5;}.cls-9{opacity:0.3;}.cls-10{fill:#f3bac0;opacity:0.6;}.cls-11{fill:#e86c7c;}.cls-12{fill:#f5d3d2;}.cls-13{fill:#f5ee8f;}.cls-14{mix-blend-mode:screen;fill:url(#Áåçûìÿííûé_ãðàäèåíò_54);}.cls-15{fill:#ab3d52;}.cls-16{fill:#f5ffff;}.cls-17{fill:#f5a995;}</style><radialGradient id="radial-gradient" cx="1.72" cy="-4.39" r="21.49" gradientUnits="userSpaceOnUse"><stop offset="0.01" stop-color="#e7e5f0"/><stop offset="0.17" stop-color="#e3e0ec"/><stop offset="0.37" stop-color="#d7d1e2"/><stop offset="0.59" stop-color="#c3b8d0"/><stop offset="0.82" stop-color="#a896b7"/><stop offset="1" stop-color="#8e75a0"/></radialGradient><linearGradient id="Áåçûìÿííûé_ãðàäèåíò_152" x1="3408.59" y1="-1464.04" x2="3408.59" y2="-1466.38" gradientTransform="matrix(-1, -0.01, -0.01, 1, 3389.28, 1514.75)" gradientUnits="userSpaceOnUse"><stop offset="0" stop-color="#ff8777"/><stop offset="0.98" stop-color="#ffb880"/></linearGradient><linearGradient id="Áåçûìÿííûé_ãðàäèåíò_151" x1="3408.13" y1="-1459.78" x2="3408.13" y2="-1466.05" gradientTransform="matrix(-1, -0.01, -0.01, 1, 3389.28, 1514.75)" gradientUnits="userSpaceOnUse"><stop offset="0.02" stop-color="#ffb880"/><stop offset="1" stop-color="#ff8777"/></linearGradient><linearGradient id="Áåçûìÿííûé_ãðàäèåíò_54" x1="3406.49" y1="-1463.83" x2="3409.34" y2="-1463.83" gradientTransform="matrix(-1, -0.01, -0.01, 1, 3389.28, 1514.75)" gradientUnits="userSpaceOnUse"><stop offset="0" stop-color="#ec4400"/><stop offset="0.11" stop-color="#db3f00"/><stop offset="0.31" stop-color="#b03300"/><stop offset="0.6" stop-color="#6b1f00"/><stop offset="0.96" stop-color="#0c0300"/><stop offset="1"/></linearGradient></defs><g class="cls-1"><g id="Layer_2" data-name="Layer 2"><g id="Layer_1-2" data-name="Layer 1"><path class="cls-2" d="M.32,4a2.71,2.71,0,0,1,.37.56c0,.11,0,1.24,0,1.92H2.58a5.56,5.56,0,0,1-.11-1.86c.22-.25,1.45-.9,1.46-1.13s0-.69.08-1,.15-.74,0-.9a3.66,3.66,0,0,0-.78-.38c-.08-.05-.15-.78-.53-.8S2.11.7,2.05.71a1.22,1.22,0,0,0-.41,0c-.2.06-.29.26-.47.3a.73.73,0,0,0-.59.52c-.08.1-.38.16-.47.36A1.09,1.09,0,0,0,0,2.66C.13,3,.23,3.89.32,4Z"/><path class="cls-3" d="M.19,1.8v0h0V1.9h0S.2,2,.21,2a1.27,1.27,0,0,0,.08.34h0A10.32,10.32,0,0,0,.55,3.64l0,.07A2,2,0,0,0,.81,4L1,4.15c0,.07,0,.4,0,.72,0,.56,0,1.25,0,1.65H2.75c-.12-1-.22-2.07-.2-2.24a5.28,5.28,0,0,1,1.09-.8,1,1,0,0,0,.57-.59,4.18,4.18,0,0,0,0-.47V2.34c0-.13,0-.3,0-.4s0-.27.06-.39a.9.9,0,0,0,0-.28.76.76,0,0,0,0-.11A.38.38,0,0,0,4.1,1l0,0L3.74.83,3.42.73a.28.28,0,0,0,0-.1A.93.93,0,0,0,3,0a.91.91,0,0,0-.7.18l0,.07L2,.21a.57.57,0,0,0-.18,0,.55.55,0,0,0-.42.25s0,0,0,0A1.19,1.19,0,0,0,1,.68.5.5,0,0,0,.75.9h0v0a.58.58,0,0,0,0,.18c-.41.16-.49.38-.51.44a0,0,0,0,1,0,0s0,.07,0,.11h0v.1Z"/><path class="cls-3" d="M3.67,3.46l0,0h0Z"/><path class="cls-3" d="M3.58,3.49h0Z"/><path class="cls-4" d="M3.34,1.78s0-.95,0-1.13A.88.88,0,0,0,2.92.14.79.79,0,0,0,2.36.3a.3.3,0,0,0-.08.15A.51.51,0,0,0,2,.34c-.19,0-.48.11-.51.29A.85.85,0,0,0,.85,1a.63.63,0,0,0,0,.22s-.46.15-.52.42a1.62,1.62,0,0,0,.08.69A3.19,3.19,0,0,0,2,2.4,1.85,1.85,0,0,0,3.34,1.78Z"/><path class="cls-5" d="M.69,3.65c.11.17.35.36.38.46s0,1.74,0,2.41H2.62a21.86,21.86,0,0,1-.19-2.28h0a3.58,3.58,0,0,1,1.15-.87h0a.89.89,0,0,0,.5-.5,5.24,5.24,0,0,0,0-.53c0-.15,0-.3,0-.4s.1-.57.09-.65A.49.49,0,0,0,4,1C3.93,1,3.58.92,3.3.83L3.13.76c-.29-.11-.6-.3-.65-.3s0,0-.08,0h0a.85.85,0,0,0-.09.14h0a.4.4,0,0,0,0,.15v0a1.14,1.14,0,0,0,.83.69l.22,0h0a1.58,1.58,0,0,1,0,.31h0A5.93,5.93,0,0,0,2,2.4a9.55,9.55,0,0,1-1.43,0h0l-.1,0h0l0,0h0A10.69,10.69,0,0,0,.67,3.59.11.11,0,0,0,.69,3.65Z"/><path class="cls-6" d="M.31,1.69v.1s0,.05,0,.08v0S.33,2,.33,2a1.17,1.17,0,0,0,.08.32h0l0,0h0a6.08,6.08,0,0,0,1.39.16l-.23.27s.4-.24.83-.46A4.51,4.51,0,0,1,3,2.05,1,1,0,0,1,3.46,2a1,1,0,0,1,.61.36c0-.15,0-.3,0-.4s.1-.57.09-.65c-.1.12-.81.11-.9.08A1.75,1.75,0,0,1,2.41.6c0-.1.06-.14.07-.14L2.4.51h0a.42.42,0,0,0-.09.14h0a.47.47,0,0,0,0,.15v0c0,.19.07.79,0,.86s-.7.11-.73,0A10.53,10.53,0,0,1,1.5.63c0,.3,0,1.1,0,1.14S1,1.88,1,1.8a4.42,4.42,0,0,1-.1-.6c0,.29.06.73.06.73A.79.79,0,0,1,.46,2,1.1,1.1,0,0,1,.32,1.7Z"/><path class="cls-7" d="M3.13.76a.15.15,0,0,1,0,.07A.86.86,0,0,1,2.61.77c-.16-.09-.1-.3-.1-.3Z"/><path class="cls-8" d="M3.62,1.42l-.29.05v.07Z"/><path class="cls-9" d="M.5,2.25l-.09,0a4.94,4.94,0,0,0,1.45.19,12.2,12.2,0,0,0,1.48-.71V1.47l-.23,0a.5.5,0,0,1-.16,0s-.08.17-.18.2H2.6a.51.51,0,0,1-.2-.05,1.61,1.61,0,0,1-.06-.35s0,.69,0,.75-.6.3-.71.14a1.29,1.29,0,0,1-.45,0A.31.31,0,0,1,1,2.06s0,.18-.16.21A.35.35,0,0,1,.54,2.2v0a1.62,1.62,0,0,1-.17-.29l.1.25Z"/><path class="cls-9" d="M2.62,6.52a21.86,21.86,0,0,1-.19-2.28,3.47,3.47,0,0,1,1.15-.87,11.19,11.19,0,0,0-1.52.5,4.91,4.91,0,0,0,.53,2.65Z"/><path class="cls-10" d="M1.07,4.11c0,.1,0,1.74,0,2.41H2.62a21.86,21.86,0,0,1-.19-2.28h0s.17-.32,1.14-.87c0,0-1.22.37-1.84.47A1.54,1.54,0,0,1,.67,3.59a.11.11,0,0,0,0,.06C.8,3.82,1,4,1.07,4.11Z"/><path class="cls-11" d="M3.13.76s0,.08-.17.09A.7.7,0,0,1,2.59.76a.65.65,0,0,0,.46.1C3.35.82,3.13.76,3.13.76Z"/><path class="cls-12" d="M2.59.5a.27.27,0,0,0,0,.26S2.45.69,2.51.47Z"/><path class="cls-12" d="M3,.72a.11.11,0,0,0,.05.1s0,0,0-.06Z"/><path class="cls-8" d="M.31,1.69v.1s0,.05,0,.08v0S.33,2,.33,2a1.17,1.17,0,0,0,.08.32h0l0,0h0a6.08,6.08,0,0,0,1.39.16l1.48-.71V1.47a1.17,1.17,0,0,1-.27,0A1.16,1.16,0,0,1,2.28.85c0,.19.07.79,0,.86s-.7.11-.73,0A10.53,10.53,0,0,1,1.5.63c0,.3,0,1.1,0,1.14S1,1.88,1,1.8a4.42,4.42,0,0,1-.1-.6c0,.29.06.73.06.73A.79.79,0,0,1,.46,2,1.1,1.1,0,0,1,.32,1.7Z"/><polygon class="cls-8" points="3.1 0.75 3.13 0.44 3.16 0.65 3.24 0.67 3.27 0.82 3.1 0.75"/><path class="cls-8" d="M1.69,2.23a3.52,3.52,0,0,1-.16-.51,3.57,3.57,0,0,1-.05-.61s0,.56,0,.66a2,2,0,0,0,.16.41Z"/><path class="cls-8" d="M1,2.06a2.88,2.88,0,0,1-.08-.3c0-.15-.09-.57-.09-.57s.05.64.07.72A.36.36,0,0,0,1,2.06Z"/><path class="cls-8" d="M3,1.48A1.33,1.33,0,0,1,2.28.85a1.52,1.52,0,0,0,.59.75Z"/><path class="cls-8" d="M2.28.85s0-.19.14-.23A.18.18,0,0,1,2.48.46.39.39,0,0,0,2.28.85Z"/><path class="cls-7" d="M4,1.07a.21.21,0,0,0-.14.18c0,.12.28,0,.28,0S4.12,1.12,4,1.07Z"/><path class="cls-13" d="M2.92.14a1.54,1.54,0,0,1-.33.15.31.31,0,0,1-.23,0A.77.77,0,0,1,2.92.14Z"/><path class="cls-13" d="M1.48.63a1.52,1.52,0,0,1-.29.21A.85.85,0,0,1,.86,1S.92.73,1.48.63Z"/><path class="cls-13" d="M2,.34,1.72.48a.35.35,0,0,1-.18.05A.47.47,0,0,1,2,.34Z"/><path class="cls-13" d="M.85,1.19l-.29.18a1.1,1.1,0,0,0-.22.21S.39,1.34.85,1.19Z"/><path class="cls-14" d="M3.9,2.17a.81.81,0,0,1-.19.72,5.93,5.93,0,0,1-2.65.44A5.15,5.15,0,0,1,3.19,2C3.79,1.93,3.9,2.17,3.9,2.17Z"/><path class="cls-8" d="M2.44,4.24a.5.5,0,0,1-.38-.37l1.52-.5A5.06,5.06,0,0,0,2.44,4.24Z"/><path class="cls-15" d="M3.34,1.78a1.15,1.15,0,0,0-.22-.2.92.92,0,0,0-.22,0L3,1.48a.74.74,0,0,0,.16,0,1.71,1.71,0,0,0,.23,0A1.58,1.58,0,0,1,3.34,1.78Z"/><path class="cls-15" d="M.54,2.2s0,.13.52.13a4,4,0,0,0,1.22-.2,2.63,2.63,0,0,0,.32-.44.51.51,0,0,1-.2-.05,1.61,1.61,0,0,1-.06-.35s0,.69,0,.75-.6.3-.71.14a1.29,1.29,0,0,1-.45,0A.31.31,0,0,1,1,2.06s0,.18-.16.21A.35.35,0,0,1,.54,2.2Z"/><path class="cls-15" d="M.36,1.89l.1.25.07,0A1.62,1.62,0,0,1,.36,1.89Z"/><path class="cls-16" d="M.67,3.45S.52,2.86.44,2.37A3.1,3.1,0,0,1,.67,3.45Z"/><path class="cls-16" d="M1.25,6.46s-.11-1.27-.12-2a12.61,12.61,0,0,0,0,2Z"/><path class="cls-16" d="M4,2.92a.67.67,0,0,1-.38.39c-.29.11-1,.28-1,.28A3.24,3.24,0,0,0,4,2.92Z"/><path class="cls-16" d="M.92,1.06a3.58,3.58,0,0,0,0,.69A1.17,1.17,0,0,1,.92,1.06Z"/><path class="cls-16" d="M.42,1.57A.88.88,0,0,0,.49,2,.38.38,0,0,1,.42,1.57Z"/><path class="cls-16" d="M1.6.63a4.33,4.33,0,0,0,0,1A1.78,1.78,0,0,1,1.6.63Z"/><path class="cls-16" d="M4,1.07A1.58,1.58,0,0,0,3.45.91.91.91,0,0,0,4,1.07Z"/><path class="cls-16" d="M4.12,1.41A1,1,0,0,0,4,1.79a3.67,3.67,0,0,0,0,.64A4.93,4.93,0,0,1,4.12,1.41Z"/><path class="cls-17" d="M2.3,1.92a.46.46,0,0,1-.47.22L2.17,2A.31.31,0,0,0,2.3,1.92Z"/><path class="cls-17" d="M1.54,2.15s-.4.12-.49-.09A.89.89,0,0,0,1.54,2.15Z"/><path class="cls-17" d="M.73,2.26a1.11,1.11,0,0,0-.2-.11A.21.21,0,0,0,.73,2.26Z"/><path class="cls-9" d="M2.23,1.73a.65.65,0,0,1-.38.11.35.35,0,0,1-.32-.12A1.05,1.05,0,0,0,2.23,1.73Z"/><path class="cls-9" d="M1.42,1.8a.33.33,0,0,1-.2.12A.32.32,0,0,1,1,1.82.74.74,0,0,0,1.42,1.8Z"/><path class="cls-9" d="M.88,2A.27.27,0,0,1,.71,2,.41.41,0,0,1,.49,2,.87.87,0,0,0,.88,2Z"/></g></g></g></svg>